<svg xmlns="http://www.w3.org/2000/svg" width="216.744" height="223.735" viewBox="0 0 216.744 223.735">
  <g id="Grupo_714" data-name="Grupo 714" transform="translate(-155 -2564.236)" opacity="0.5">
    <g id="Grupo_711" data-name="Grupo 711" transform="translate(155 2564.236)">
      <g id="Grupo_710" data-name="Grupo 710" transform="translate(0 0)">
        <g id="Frame">
          <g id="Grupo_709" data-name="Grupo 709">
            <path id="Caminho_138" data-name="Caminho 138" d="M102.02,350.428,169.28,289.6a17.637,17.637,0,0,0,9.369,10.348l-55.794,50.48Z" transform="translate(-77.479 -263.031)" fill="#fff"/>
            <path id="Caminho_139" data-name="Caminho 139" d="M183.854,350.426l-55.794-50.48a17.641,17.641,0,0,0,9.369-10.344l67.26,60.825Z" transform="translate(-12.487 -263.029)" fill="#fff"/>
            <path id="Caminho_145" data-name="Caminho 145" d="M0,0H208.982V133.119H0Z" transform="translate(3.881 87.534)" fill="#dee6ff"/>
            <path id="Caminho_140" data-name="Caminho 140" d="M120.975,415.876A21,21,0,0,0,100,394.9V331.975A21,21,0,0,0,120.975,311H260.81a21,21,0,0,0,20.975,20.975V394.9a21,21,0,0,0-20.975,20.975Z" transform="translate(-82.521 -209.344)" fill="#fff"/>
            <path id="Caminho_146" data-name="Caminho 146" d="M17.177,0c9.486,0,17.177,8.011,17.177,17.892s-7.69,17.892-17.177,17.892S0,27.774,0,17.892,7.69,0,17.177,0Z" transform="translate(91.195 3.083)" fill="#dee6ff"/>
            <ellipse id="Elipse_2" data-name="Elipse 2" cx="7.364" cy="6.444" rx="7.364" ry="6.444" transform="translate(101.008 14.294)" fill="#fff"/>
            <g id="Grupo_708" data-name="Grupo 708">
              <path id="Caminho_142" data-name="Caminho 142" d="M308.248,365.9h-19.7l-64.681-58.5a20.975,20.975,0,1,0-40.993,0L118.2,365.9H98.5a3.5,3.5,0,0,0-3.5,3.5V502.24a3.5,3.5,0,0,0,3.5,3.5H308.248a3.5,3.5,0,0,0,3.5-3.5V369.4A3.5,3.5,0,0,0,308.248,365.9Zm-87.2-51.627L278.124,365.9H267.713l-51.347-46.456A23.34,23.34,0,0,0,221.043,314.274Zm-17.672,9.677a20.911,20.911,0,0,0,6.429-1.017L257.292,365.9H149.452l47.491-42.968A20.911,20.911,0,0,0,203.372,323.95Zm0-34.959a13.983,13.983,0,0,1,0,27.967,14.173,14.173,0,0,1-13.984-13.984A14,14,0,0,1,203.372,288.992ZM185.7,314.274a23.374,23.374,0,0,0,4.677,5.17L139.03,365.9H128.62Zm119.052,184.47H101.992V372.892h202.76Z" transform="translate(-95 -282)" fill="#51a4ff"/>
              <path id="Caminho_143" data-name="Caminho 143" d="M266.8,313.5a3.5,3.5,0,0,0-3.5-3.5H123.471a3.5,3.5,0,0,0-3.5,3.5A17.5,17.5,0,0,1,102.5,330.975a3.5,3.5,0,0,0-3.5,3.5V397.4a3.5,3.5,0,0,0,3.5,3.5,17.5,17.5,0,0,1,17.479,17.48,3.5,3.5,0,0,0,3.5,3.5H263.306a3.5,3.5,0,0,0,3.5-3.5,17.5,17.5,0,0,1,17.479-17.48,3.5,3.5,0,0,0,3.5-3.5V334.471a3.5,3.5,0,0,0-3.5-3.5A17.5,17.5,0,0,1,266.8,313.5Zm13.983,80.653a24.532,24.532,0,0,0-20.727,20.727H126.719a24.532,24.532,0,0,0-20.727-20.727v-56.43a24.532,24.532,0,0,0,20.727-20.727H260.058a24.532,24.532,0,0,0,20.727,20.727Z" transform="translate(-85.017 -212.116)" fill="#51a4ff"/>
              <path id="Caminho_144" data-name="Caminho 144" d="M133.488,305.975A10.488,10.488,0,1,0,123,295.488,10.5,10.5,0,0,0,133.488,305.975Zm0-13.984a3.5,3.5,0,1,1-3.5,3.5A3.5,3.5,0,0,1,133.488,291.992Z" transform="translate(-25.116 -274.512)" fill="#51a4ff"/>
            </g>
          </g>
        </g>
      </g>
      <text id="_7_DIAS" data-name="7 DIAS" transform="translate(96.548 160.278)" fill="#51a4ff" font-size="29" font-family="Poppins-Bold, Poppins" font-weight="700"><tspan x="-45.254" y="0">7 DIAS</tspan></text>
    </g>
    <g id="Grupo_712" data-name="Grupo 712" transform="translate(223.118 2679.385)">
      <path id="Caminho_147" data-name="Caminho 147" d="M20.8,12.35l-4.448,2.338.85-4.952L13.6,6.228l4.972-.722L20.8,1,23.02,5.506l4.972.722-3.6,3.507.849,4.952Z" transform="translate(-13.6 -1)" fill="#dee6ff"/>
      <path id="Caminho_148" data-name="Caminho 148" d="M20.8,12.35l-4.448,2.338.85-4.952L13.6,6.228l4.972-.722L20.8,1,23.02,5.506l4.972.722-3.6,3.507.849,4.952Z" transform="translate(2.97 -1)" fill="#dee6ff"/>
      <path id="Caminho_149" data-name="Caminho 149" d="M20.8,12.35l-4.448,2.338.85-4.952L13.6,6.228l4.972-.722L20.8,1,23.02,5.506l4.972.722-3.6,3.507.849,4.952Z" transform="translate(19.539 -1)" fill="#dee6ff"/>
      <path id="Caminho_150" data-name="Caminho 150" d="M20.8,12.35l-4.448,2.338.85-4.952L13.6,6.228l4.972-.722L20.8,1,23.02,5.506l4.972.722-3.6,3.507.849,4.952Z" transform="translate(36.108 -1)" fill="#dee6ff"/>
      <path id="Caminho_151" data-name="Caminho 151" d="M20.8,12.35l-4.448,2.338.85-4.952L13.6,6.228l4.972-.722L20.8,1,23.02,5.506l4.972.722-3.6,3.507.849,4.952Z" transform="translate(52.677 -1)" fill="#dee6ff"/>
    </g>
    <g id="Grupo_713" data-name="Grupo 713" transform="translate(223.118 2743.82)">
      <path id="Caminho_147-2" data-name="Caminho 147" d="M20.8,12.35l-4.448,2.338.85-4.952L13.6,6.228l4.972-.722L20.8,1,23.02,5.506l4.972.722-3.6,3.507.849,4.952Z" transform="translate(-13.6 -1)" fill="#dee6ff"/>
      <path id="Caminho_148-2" data-name="Caminho 148" d="M20.8,12.35l-4.448,2.338.85-4.952L13.6,6.228l4.972-.722L20.8,1,23.02,5.506l4.972.722-3.6,3.507.849,4.952Z" transform="translate(2.97 -1)" fill="#dee6ff"/>
      <path id="Caminho_149-2" data-name="Caminho 149" d="M20.8,12.35l-4.448,2.338.85-4.952L13.6,6.228l4.972-.722L20.8,1,23.02,5.506l4.972.722-3.6,3.507.849,4.952Z" transform="translate(19.539 -1)" fill="#dee6ff"/>
      <path id="Caminho_150-2" data-name="Caminho 150" d="M20.8,12.35l-4.448,2.338.85-4.952L13.6,6.228l4.972-.722L20.8,1,23.02,5.506l4.972.722-3.6,3.507.849,4.952Z" transform="translate(36.108 -1)" fill="#dee6ff"/>
      <path id="Caminho_151-2" data-name="Caminho 151" d="M20.8,12.35l-4.448,2.338.85-4.952L13.6,6.228l4.972-.722L20.8,1,23.02,5.506l4.972.722-3.6,3.507.849,4.952Z" transform="translate(52.677 -1)" fill="#dee6ff"/>
    </g>
  </g>
</svg>
