<svg xmlns="http://www.w3.org/2000/svg" width="110.385" height="106.686" viewBox="0 0 110.385 106.686">
  <g id="Grupo_804" data-name="Grupo 804" transform="translate(-52.743 -618.128)">
    <path id="checkbox" d="M85.354,96.684H11.33A11.343,11.343,0,0,1,0,85.354V11.33A11.343,11.343,0,0,1,11.33,0H85.354a11.343,11.343,0,0,1,11.33,11.33V85.354A11.343,11.343,0,0,1,85.354,96.684ZM11.33,7.553A3.781,3.781,0,0,0,7.553,11.33V85.354a3.781,3.781,0,0,0,3.777,3.777H85.354a3.781,3.781,0,0,0,3.777-3.777V8.46C89.131,6.378,87.437,7.553,11.33,7.553Z" transform="translate(52.743 628.129)" fill="#868f98"/>
    <path id="check" d="M930.01,3839a9.327,9.327,0,0,0-6.6,3.117c-15.192,16.406-29.061,32.5-43.652,48.561l-17.152-14.818a9.145,9.145,0,0,0-13.5,1.6,10.931,10.931,0,0,0,1.5,14.566h0l24,20.686a9.088,9.088,0,0,0,12.8-.807c17.265-18.646,32.734-36.955,49.6-55.184a10.918,10.918,0,0,0,.127-14.629A9.207,9.207,0,0,0,930.01,3839Z" transform="translate(-776.76 -3220.871)" fill="#1ad598"/>
  </g>
</svg>
