<svg xmlns="http://www.w3.org/2000/svg" xmlns:xlink="http://www.w3.org/1999/xlink" width="180" height="183" viewBox="0 0 180 183">
  <defs>
    <linearGradient id="linear-gradient" x1="0.484" y1="0.031" x2="0.51" y2="0.989" gradientUnits="objectBoundingBox">
      <stop offset="0" stop-color="#24abf1"/>
      <stop offset="0.187" stop-color="#21eaf1"/>
      <stop offset="0.518" stop-color="#1ac7f4"/>
      <stop offset="0.952" stop-color="#10e8f8"/>
      <stop offset="1" stop-color="#0fe9f9"/>
    </linearGradient>
  </defs>
  <g id="Grupo_1183" data-name="Grupo 1183" transform="translate(10595 -3104.555)">
    <g id="Grupo_1182" data-name="Grupo 1182" transform="translate(-10750 -14344.445)">
      <g id="Elipse_44" data-name="Elipse 44" transform="translate(155 17449)" fill="none" stroke="#e5e5e5" stroke-width="12">
        <ellipse cx="90" cy="91.5" rx="90" ry="91.5" stroke="none"/>
        <ellipse cx="90" cy="91.5" rx="84" ry="85.5" fill="none"/>
      </g>
      <path id="Caminho_3147" data-name="Caminho 3147" d="M859.12,354.733a.5.5,0,0,0-.008-.07c-.005-1.733-.072-3.451-.171-5.16-.007-.109-.017-.217-.023-.326a91.087,91.087,0,0,0-13.476-42.387l-.008-.013q-1.2-1.939-2.5-3.81c-.07-.1-.215-.186-.286-.288-.474-.728-1.225-1.537-1.4-1.932a90.59,90.59,0,0,0-26.228-24.023c-.156-.112-.311-.226-.477-.323a89.439,89.439,0,0,0-27.939-10.829c-.011,0-3.438-.7-5.176-.945l-.095-.013a91.084,91.084,0,0,0-10.318-.885l-.02,0c-.048,0-.095-.01-.143-.01-.081,0-.135-.01-.214-.013l-.015,0a6.228,6.228,0,0,0,0,12.431v.055c.063,0,.128.008.191.01v.03c1.071.033,2.132.1,3.191.179.436.032.871.064,1.305.1q1.262.113,2.511.268c.456.055.911.11,1.363.174.8.112,1.6.239,2.391.375.475.082.951.164,1.423.253.76.146,1.511.3,2.263.472.5.11,1,.219,1.49.34.713.172,1.422.361,2.128.554.519.14,1.038.283,1.553.435.667.2,1.327.406,1.985.621.544.177,1.087.353,1.626.54.613.214,1.22.443,1.827.672.57.214,1.142.43,1.706.659s1.11.465,1.664.7c.6.258,1.194.515,1.784.788.5.232,1,.478,1.5.721.625.3,1.249.611,1.864.932.446.233.885.477,1.325.718.65.356,1.3.713,1.94,1.087.387.226.768.463,1.151.7.678.411,1.355.826,2.018,1.258.324.211.642.431.963.646.708.477,1.415.955,2.107,1.453.258.186.51.38.767.569.74.547,1.473,1.1,2.193,1.669.193.152.379.311.57.467.77.622,1.531,1.253,2.276,1.9.126.112.249.227.376.338.8.708,1.586,1.425,2.354,2.163.058.055.113.114.171.169a78.772,78.772,0,0,1,24.079,56.588h0c0,.064.017.12.018.182l0,.032v.027c0,1.142-.037,2.275-.085,3.406-.018.416-.038.831-.063,1.246-.012.227-.032.453-.05.681-.012.181-.027.36-.04.54l-.007.079c-.035.36-.07.719-.1,1.08-.085.962-.176,1.92-.291,2.874-.03.238-.058.477-.09.714-.091.637-.2,1.271-.3,1.905-.146.92-.291,1.84-.469,2.748-.158.808-.344,1.606-.527,2.405-.186.82-.374,1.638-.587,2.447-.219.84-.462,1.669-.71,2.5-.223.748-.451,1.492-.693,2.23-.281.848-.579,1.691-.886,2.526q-.387,1.046-.8,2.077c-.338.84-.683,1.674-1.049,2.5-.3.669-.607,1.331-.921,1.992-.384.806-.771,1.612-1.182,2.4a79,79,0,0,1-29.439,31.339c-.11.059-.206.132-.313.2a77.642,77.642,0,0,1-37.044,10.847c-.017,0-.03-.005-.047-.005-.055,0-.106.015-.163.017l-.03,0v0c-.038,0-.075.012-.113.013-.783.023-1.565.06-2.353.06q-2.574,0-5.106-.169c-.6-.038-1.18-.115-1.774-.167-1.084-.1-2.168-.184-3.239-.323-.713-.092-1.413-.224-2.12-.336-.933-.147-1.869-.284-2.79-.465-.758-.149-1.5-.335-2.253-.5-.853-.194-1.709-.378-2.551-.6-.77-.2-1.526-.438-2.286-.664-.8-.238-1.609-.468-2.4-.731-.763-.254-1.515-.535-2.268-.813-.77-.281-1.54-.559-2.3-.865s-1.476-.624-2.21-.945c-.748-.329-1.5-.657-2.231-1.009-.71-.34-1.407-.7-2.1-1.057a78.9,78.9,0,0,1-30.937-28.609l-.01.005a6.251,6.251,0,1,0-10.412,6.756,90.559,90.559,0,0,0,76.988,42.986c1.392,0,2.775-.043,4.152-.107q.524-.023,1.047-.053c1.333-.075,2.66-.171,3.977-.3.042,0,.085-.005.125-.01,1.342-.137,2.672-.315,4-.51.361-.054.72-.11,1.081-.167,1.217-.2,2.427-.408,3.63-.652.12-.023.239-.043.359-.069,1.262-.261,2.511-.557,3.753-.871q.591-.148,1.177-.306,1.591-.424,3.157-.9c.284-.087.569-.171.851-.261,1.1-.35,2.193-.724,3.277-1.114q.666-.241,1.328-.492,1.312-.5,2.6-1.034c.5-.206.993-.413,1.487-.627q1.334-.582,2.647-1.2c.507-.241,1.009-.487,1.511-.736q1.01-.5,2.007-1.035,1.12-.592,2.22-1.213c.638-.361,1.275-.726,1.9-1.1q.853-.509,1.693-1.04.713-.449,1.418-.915c1-.654,1.987-1.33,2.961-2.022.369-.264.742-.524,1.107-.793q.935-.688,1.849-1.4c.3-.229.587-.463.88-.7q1.851-1.468,3.62-3.029c.113-.1.228-.2.341-.3.657-.585,1.3-1.183,1.942-1.786.148-.14.3-.284.444-.427q2.99-2.863,5.716-5.986c.052-.062.1-.122.156-.184q2.823-3.257,5.337-6.774l0-.005a91.888,91.888,0,0,0,4.956-7.739l.025-.044v0a91.022,91.022,0,0,0,5.469-11.321l.045-.107c.05-.125.1-.254.146-.38v0c.406-1.032.8-2.066,1.17-3.114.018-.054.04-.107.06-.161.035-.1.067-.207.1-.309.017-.047.028-.1.045-.146l0,0q.738-2.145,1.372-4.339v0q.636-2.2,1.161-4.436c.01-.038.02-.077.03-.117.038-.167.075-.336.113-.505h0c.243-1.064.472-2.131.677-3.208.008-.044.018-.085.027-.129.02-.107.045-.212.065-.319l.038-.206c.035-.191.055-.386.09-.577l0-.023h0q.344-1.952.6-3.927l.01-.062c.023-.189.062-.373.087-.564.022-.171.04-.341.06-.512.015-.125.022-.253.035-.378.145-1.258.256-2.524.349-3.8v-.005l0-.032c.022-.3.063-.6.082-.9.011-.169.017-.341.027-.51l0-.049c.1-1.724.158-3.461.16-5.209v-.023l0-.033v0c0-.067-.005-.13-.005-.2C859.115,354.763,859.12,354.748,859.12,354.733Z" transform="translate(-524.203 17185.59)" fill="url(#linear-gradient)"/>
    </g>
    <text id="_00:29:32" data-name="00:29:32" transform="translate(-10560 3179.555)" fill="#24abf1" font-size="24" font-family="Poppins-Bold, Poppins" font-weight="700"><tspan x="4.692" y="25">00:29:32</tspan></text>
  </g>
</svg>
