<svg xmlns="http://www.w3.org/2000/svg" width="646.923" height="79.021" viewBox="0 0 646.923 79.021">
  <defs>
    <style>
      .cls-1, .cls-2 {
        fill: #6b7c9a;
      }

      .cls-2 {
        fill-rule: evenodd;
      }
    </style>
  </defs>
  <g id="Grupo_675" data-name="Grupo 675" transform="translate(-80 -3868)">
    <g id="Grupo_543" data-name="Grupo 543" transform="translate(80 3868)">
      <g id="Grupo_1" data-name="Grupo 1">
        <path id="Caminho_1" data-name="Caminho 1" class="cls-1" d="M227.673,84.944,221.3,78.568l-6.11,6.114a8.319,8.319,0,0,0,0,11.722l6.372,6.374,6.114-6.116a8.314,8.314,0,0,0,0-11.717" transform="translate(-89.935 -51.156)"/>
        <path id="Caminho_2" data-name="Caminho 2" class="cls-2" d="M199.792,84.672l-6.107-6.107L187.3,84.948a8.306,8.306,0,0,0,0,11.717l6.11,6.112,6.378-6.383a8.323,8.323,0,0,0,0-11.722" transform="translate(-123.468 -51.16)"/>
        <path id="Caminho_3" data-name="Caminho 3" class="cls-1" d="M284.433,99.639,253.345,68.546a8.323,8.323,0,0,0-11.728,0L216.645,93.525l6.372,6.376a8.32,8.32,0,0,1,0,11.719l-6.114,6.114,24.714,24.718a8.315,8.315,0,0,0,11.728,0l31.088-31.092a8.323,8.323,0,0,0,0-11.722m-19.884,3.594a11.125,11.125,0,0,1-3.531,8.339c-3.6,3.493-7.347,6.834-11.089,10.175a3.471,3.471,0,0,1-1.52.753c-.062.015-.121.033-.185.046s-.132.02-.2.029a3.706,3.706,0,0,1-.544.046l-.009,0h-.029a3.787,3.787,0,0,1-.526-.046,3.573,3.573,0,0,1-1.914-.841c-3.715-3.313-7.438-6.623-11.012-10.085a10.765,10.765,0,0,1-3.57-8.325c0-.046-.009-.092-.009-.139a9.53,9.53,0,0,1,.621-3.365c.029-.084.059-.165.09-.249.02-.048.037-.1.059-.145a8.64,8.64,0,0,1,4.053-4.548,9.529,9.529,0,0,1,3-1.1c.256-.049.5-.088.758-.115.029,0,.062,0,.092-.009.264-.024.524-.035.782-.037.044,0,.084-.007.126-.007s.095.007.143.007q.185.007.37.02a9.543,9.543,0,0,1,6.979,3.6,9.558,9.558,0,0,1,15.021.046c.115.145.227.293.333.445.06.084.115.17.17.255.121.185.24.377.348.573.018.033.04.066.057.1.13.24.251.491.359.747l.042.088c.108.26.2.524.288.8l.033.1c.082.266.152.54.211.815.009.046.015.09.024.134.053.271.1.546.126.826.007.057.009.115.013.174.011.119.022.236.028.355s.007.233.009.35c0,.048.007.095.007.145Z" transform="translate(-85.279 -66.113)"/>
        <path id="Caminho_4" data-name="Caminho 4" class="cls-1" d="M205.056,76.387a4.23,4.23,0,1,0,4.229,4.229,4.233,4.233,0,0,0-4.229-4.229" transform="translate(-104.3 -53.779)"/>
        <path id="Caminho_5" data-name="Caminho 5" class="cls-1" d="M244.063,111.219a8.323,8.323,0,0,1,0-11.722l6.114-6.114L225.463,68.665a8.319,8.319,0,0,0-11.728,0L189.03,93.377l6.108,6.107a8.323,8.323,0,0,1,0,11.722l-6.381,6.383,24.978,24.987a8.323,8.323,0,0,0,11.728,0l24.974-24.983Zm-26.1,13.772a2.334,2.334,0,1,1-4.667,0V108.358l-9.713-5.55a2.334,2.334,0,0,1,2.315-4.053l10.891,6.22A2.334,2.334,0,0,1,217.962,107Zm1.606-23.285a8.9,8.9,0,1,1,8.9-8.9,8.908,8.908,0,0,1-8.9,8.9m16.047,1.1-9.713,5.55v16.633a2.334,2.334,0,1,1-4.667,0V107a2.336,2.336,0,0,1,1.176-2.026l10.889-6.22a2.334,2.334,0,1,1,2.315,4.053" transform="translate(-118.813 -65.972)"/>
        <path id="Caminho_6" data-name="Caminho 6" class="cls-1" d="M183.3,102.813l10.99-10.993a1.406,1.406,0,0,0-1.989-1.989l-9,9V91.62l6.083-6.083a1.408,1.408,0,1,0-1.991-1.991L183.3,87.64V80.105a1.407,1.407,0,0,0-2.815,0v7.583l-4.143-4.143a1.407,1.407,0,1,0-1.989,1.991l6.132,6.132v7.213l-9.05-9.05a1.407,1.407,0,0,0-1.991,1.989l11.041,11.043v6.982c.465.04.932.079,1.407.079s.943-.042,1.407-.081Z" transform="translate(-142.528 -51)"/>
        <path id="Caminho_7" data-name="Caminho 7" class="cls-1" d="M220.836,99.91l6.38-6.383-24.98-24.985a8.318,8.318,0,0,0-11.73,0L159.42,99.635a8.307,8.307,0,0,0,0,11.722l31.086,31.095a8.33,8.33,0,0,0,11.73,0l24.707-24.712-6.107-6.112a8.306,8.306,0,0,1,0-11.717m-7.955,9.072c0,.059.007.119.007.178a16.039,16.039,0,0,1-.6,4.346c-.029.108-.059.214-.09.319-.018.064-.035.13-.053.192a11.005,11.005,0,0,1-3.057,4.958,16.361,16.361,0,0,1-25.163.335,11.03,11.03,0,0,1-2.095-2.524c-.11-.187-.218-.377-.322-.573-.057-.11-.11-.218-.163-.33-.119-.24-.231-.487-.337-.738-.018-.044-.037-.088-.055-.132-.128-.311-.242-.634-.348-.962l-.04-.117c-.106-.333-.2-.676-.28-1.026l-.033-.132c-.079-.346-.145-.7-.2-1.055-.009-.057-.018-.115-.024-.172-.051-.35-.095-.7-.123-1.064,0-.075-.007-.152-.013-.225-.009-.152-.02-.306-.024-.46s-.007-.3-.009-.452c0-.062-.009-.123-.009-.187l0-.066.007-.1c-.007-.172-.053-.335-.053-.509a16.332,16.332,0,0,1,.789-4.788c.081-.291.168-.579.267-.861a15.7,15.7,0,0,1,.621-1.484,15.451,15.451,0,0,1,.872-1.606c.168-.271.33-.542.515-.8.139-.2.245-.421.394-.614,3.484-4.511,7.114-8.825,10.737-13.14a3.136,3.136,0,0,1,1.469-.971c.059-.02.117-.044.176-.059s.13-.026.2-.04a2.767,2.767,0,0,1,.524-.055h.009l.029,0a2.587,2.587,0,0,1,.506.057,3.154,3.154,0,0,1,1.857,1.086c3.594,4.277,7.2,8.554,10.653,13.023.2.264.361.564.551.841.09.128.17.258.255.39a16.384,16.384,0,0,1,1.172,2.156c.117.258.234.513.337.775a15.984,15.984,0,0,1,.573,1.841c.121.46.249.914.333,1.39.055.346.07.714.106,1.073a15.988,15.988,0,0,1,.181,1.788c0,.17-.044.326-.049.493Z" transform="translate(-157 -66.122)"/>
        <g id="Grupo_553" data-name="Grupo 553" transform="translate(224.782 14.681)">
          <path id="Caminho_8" data-name="Caminho 8" class="cls-1" d="M296.323,97.282a33.159,33.159,0,0,1-2.229,12.36,20.345,20.345,0,0,1-6.975,9.092,21.118,21.118,0,0,1-6.977,3.158,37.7,37.7,0,0,1-9.5,1.073h-11.58V73.528q3.931-.449,6.94-.595t5.605-.145a31.736,31.736,0,0,1,11.876,1.929A18.726,18.726,0,0,1,295.133,87.78a36.694,36.694,0,0,1,1.189,9.5m-6.607.405a34,34,0,0,0-.819-7.693,14.79,14.79,0,0,0-2.9-6.1,13.618,13.618,0,0,0-5.546-3.982,23.175,23.175,0,0,0-8.675-1.412c-.991,0-2.024.026-3.09.075s-2.123.148-3.165.3v38.675h6.18a20.457,20.457,0,0,0,8.453-1.562,14.617,14.617,0,0,0,5.581-4.238,16.729,16.729,0,0,0,3.055-6.286,31.109,31.109,0,0,0,.929-7.775" transform="translate(-259.059 -72.788)"/>
          <path id="Caminho_9" data-name="Caminho 9" class="cls-1" d="M311.168,97.471a27.458,27.458,0,0,1-.89,7.017,16.958,16.958,0,0,1-2.861,5.973,14.139,14.139,0,0,1-5.083,4.156,16.779,16.779,0,0,1-7.572,1.559,17.267,17.267,0,0,1-7.532-1.482,13.668,13.668,0,0,1-5.013-4.009,16.565,16.565,0,0,1-2.819-5.9,27.648,27.648,0,0,1-.892-7.092,23.675,23.675,0,0,1,1.039-7.052,16.738,16.738,0,0,1,3.119-5.826,15.246,15.246,0,0,1,5.158-3.971,16.513,16.513,0,0,1,7.237-1.487,16.826,16.826,0,0,1,7.423,1.487,13.918,13.918,0,0,1,4.975,3.971,16.293,16.293,0,0,1,2.821,5.753,26.2,26.2,0,0,1,.89,6.9m-6.607,0a25.566,25.566,0,0,0-.41-4.564,12.663,12.663,0,0,0-1.456-4.083,8.011,8.011,0,0,0-2.905-2.934,9.344,9.344,0,0,0-4.841-1.112,9.228,9.228,0,0,0-4.731,1.112,8.531,8.531,0,0,0-3.02,2.934,12.852,12.852,0,0,0-1.6,4.083,21.682,21.682,0,0,0-.485,4.564,27.3,27.3,0,0,0,.41,4.678,12.519,12.519,0,0,0,1.526,4.268,9.464,9.464,0,0,0,2.98,3.119,8.529,8.529,0,0,0,4.771,1.225,9.051,9.051,0,0,0,4.918-1.225,8.559,8.559,0,0,0,2.978-3.119,13.554,13.554,0,0,0,1.456-4.268,27.522,27.522,0,0,0,.41-4.678" transform="translate(-235.676 -64.888)"/>
          <path id="Caminho_10" data-name="Caminho 10" class="cls-1" d="M310.275,110.558a11.6,11.6,0,0,0,6.535-1.934,7.614,7.614,0,0,0,1.852-1.751,2.986,2.986,0,0,0,.671-1.672V79.6h.445a3.241,3.241,0,0,0,.407-.037,3.2,3.2,0,0,1,.48-.04,5.735,5.735,0,0,1,3.528,1.079q1.444,1.074,1.447,3.894v30.361h-6.308v-3.2a13.435,13.435,0,0,1-4.156,3,15.649,15.649,0,0,1-6.907,1.315,13.752,13.752,0,0,1-6.68-1.332,8.868,8.868,0,0,1-3.526-3.416,11.406,11.406,0,0,1-1.372-4.563c-.148-1.658-.225-3.257-.225-4.788V79.6h.447a3.236,3.236,0,0,0,.41-.037,3.152,3.152,0,0,1,.48-.04,5.872,5.872,0,0,1,3.526,1.044q1.447,1.041,1.447,3.868v17.488a20.671,20.671,0,0,0,.408,4.614,4.246,4.246,0,0,0,1.671,2.6,6.516,6.516,0,0,0,2.412,1.119,13.578,13.578,0,0,0,3.006.3" transform="translate(-214.075 -64.685)"/>
          <path id="Caminho_11" data-name="Caminho 11" class="cls-1" d="M314.535,116.044a11.046,11.046,0,0,1-.632-3.081c-.073-1.114-.112-2.214-.112-3.3V74.917h.445a2.869,2.869,0,0,0,.412-.037,3.467,3.467,0,0,1,.482-.037,5.966,5.966,0,0,1,3.489,1.033c.987.689,1.485,1.943,1.485,3.76v5.9h11.059v5.418H320.1V110.1q0,6.085,4.823,6.088a6.015,6.015,0,0,0,2.227-.407,9.678,9.678,0,0,0,1.857-.965,12.116,12.116,0,0,0,1.372-1.079,5.39,5.39,0,0,0,.7-.74,20.345,20.345,0,0,1,1.524,2.152,3.855,3.855,0,0,1,.628,2,2.294,2.294,0,0,1-.667,1.447,6.738,6.738,0,0,1-1.857,1.445,12.12,12.12,0,0,1-2.932,1.119,15.636,15.636,0,0,1-3.821.44,11.272,11.272,0,0,1-6.163-1.48,8.085,8.085,0,0,1-3.264-4.083" transform="translate(-193.245 -70.319)"/>
          <path id="Caminho_12" data-name="Caminho 12" class="cls-1" d="M356.294,97.471a27.456,27.456,0,0,1-.892,7.017,16.958,16.958,0,0,1-2.859,5.973,14.182,14.182,0,0,1-5.086,4.156,16.789,16.789,0,0,1-7.57,1.559,17.294,17.294,0,0,1-7.537-1.482,13.682,13.682,0,0,1-5.011-4.009,16.576,16.576,0,0,1-2.817-5.9,27.66,27.66,0,0,1-.892-7.092,23.592,23.592,0,0,1,1.039-7.052,16.7,16.7,0,0,1,3.116-5.826,15.233,15.233,0,0,1,5.16-3.971,16.5,16.5,0,0,1,7.235-1.487,16.848,16.848,0,0,1,7.424,1.487,13.883,13.883,0,0,1,4.971,3.971,16.231,16.231,0,0,1,2.824,5.753,26.2,26.2,0,0,1,.892,6.9m-6.607,0a25.58,25.58,0,0,0-.412-4.564,12.659,12.659,0,0,0-1.454-4.083,8.035,8.035,0,0,0-2.907-2.934,9.346,9.346,0,0,0-4.843-1.112,9.213,9.213,0,0,0-4.729,1.112,8.523,8.523,0,0,0-3.017,2.934,12.7,12.7,0,0,0-1.6,4.083,21.55,21.55,0,0,0-.487,4.564,27.5,27.5,0,0,0,.408,4.678,12.606,12.606,0,0,0,1.528,4.268,9.453,9.453,0,0,0,2.984,3.119,8.5,8.5,0,0,0,4.766,1.225,9.046,9.046,0,0,0,4.918-1.225,8.6,8.6,0,0,0,2.98-3.119,13.55,13.55,0,0,0,1.454-4.268,27.541,27.541,0,0,0,.412-4.678" transform="translate(-181.411 -64.888)"/>
          <path id="Caminho_13" data-name="Caminho 13" class="cls-1" d="M343.064,79.953a5.709,5.709,0,0,1,3.081.857,3.8,3.8,0,0,1,1.672,2.857,10.86,10.86,0,0,1,3.118-2.934,8.544,8.544,0,0,1,4.824-1.374,10.826,10.826,0,0,1,1.744.152,8.009,8.009,0,0,1,1.744.48,3.542,3.542,0,0,1,1.335.927,2.286,2.286,0,0,1,.518,1.559,6.429,6.429,0,0,1-.593,2.562,14.216,14.216,0,0,1-1.187,2.264,7.422,7.422,0,0,0-2.077-1.372,7.113,7.113,0,0,0-2.824-.482,7.2,7.2,0,0,0-4.451,1.522,5.683,5.683,0,0,0-1.41,1.595,3.618,3.618,0,0,0-.52,1.854v24.646h-6.308V80.027h.518a2.832,2.832,0,0,0,.447-.037,2.327,2.327,0,0,1,.368-.037" transform="translate(-159.646 -64.888)"/>
          <path id="Caminho_14" data-name="Caminho 14" class="cls-1" d="M386.395,112.932V73.067a2.094,2.094,0,0,0,.52-.073,5.3,5.3,0,0,0,.559-.035,6.432,6.432,0,0,1,.7-.037,5.9,5.9,0,0,1,1.408.183,3.862,3.862,0,0,1,1.377.67A3.51,3.51,0,0,1,392,75.186a6.106,6.106,0,0,1,.408,2.412V122.8h-6.015L361.159,84.278V122.8h-6.015V73.292a7.435,7.435,0,0,1,1.264-.26,12.318,12.318,0,0,1,1.632-.11,4.993,4.993,0,0,1,2.564.555,5.476,5.476,0,0,1,1.74,1.892Z" transform="translate(-143.519 -72.627)"/>
          <path id="Caminho_15" data-name="Caminho 15" class="cls-1" d="M405.076,106.973a19.618,19.618,0,0,0,.152,2.784,2.906,2.906,0,0,0,.553,1.484,1.925,1.925,0,0,0,1.114.632,8.972,8.972,0,0,0,1.821.148v2.969a9.942,9.942,0,0,1-1.636.372,12.847,12.847,0,0,1-2,.148,8.452,8.452,0,0,1-4.057-.925,4.037,4.037,0,0,1-2.026-3.3,16.9,16.9,0,0,1-4.443,3.156,15.28,15.28,0,0,1-6.806,1.3,17.617,17.617,0,0,1-3.885-.447,9.419,9.419,0,0,1-3.551-1.632,9.176,9.176,0,0,1-2.627-3.2,11.158,11.158,0,0,1-1.035-5.123,9.778,9.778,0,0,1,1.963-6.308,13.969,13.969,0,0,1,4.845-3.859,21.621,21.621,0,0,1,6.178-1.932,47.022,47.022,0,0,1,6.026-.592h1.555a13.96,13.96,0,0,1,1.555.073V91.608a7.3,7.3,0,0,0-1.594-5.085q-1.6-1.744-6.127-1.744a16.383,16.383,0,0,0-5.641.852,20.332,20.332,0,0,0-4.456,2.339h-.74a11.056,11.056,0,0,1-1-2.079,5.514,5.514,0,0,1-.412-1.782,2.347,2.347,0,0,1,1.192-1.819,12.288,12.288,0,0,1,3.078-1.518,24.156,24.156,0,0,1,4.2-1.042,28.455,28.455,0,0,1,4.528-.372,20.891,20.891,0,0,1,6.317.817,9.764,9.764,0,0,1,4.114,2.451,9.023,9.023,0,0,1,2.216,4.083,22.6,22.6,0,0,1,.636,5.64Zm-6.235-9.5H396.7a40.14,40.14,0,0,0-4.806.3,17.187,17.187,0,0,0-4.434,1.114,8.478,8.478,0,0,0-3.253,2.266,5.633,5.633,0,0,0-1.253,3.821,6.241,6.241,0,0,0,1.328,3.931q1.331,1.708,4.953,1.711a11.894,11.894,0,0,0,3.659-.559,14.042,14.042,0,0,0,3.066-1.372,8.037,8.037,0,0,0,2.1-1.784,2.979,2.979,0,0,0,.775-1.852Z" transform="translate(-117.663 -64.888)"/>
          <path id="Caminho_16" data-name="Caminho 16" class="cls-1" d="M395.893,116.044a11.058,11.058,0,0,1-.633-3.081c-.073-1.114-.112-2.214-.112-3.3V74.917h.445a2.861,2.861,0,0,0,.411-.037,3.477,3.477,0,0,1,.483-.037,5.965,5.965,0,0,1,3.489,1.033q1.48,1.034,1.484,3.76v5.9h11.059v5.418H401.46V110.1q0,6.085,4.824,6.088a6.012,6.012,0,0,0,2.227-.407,9.682,9.682,0,0,0,1.857-.965,12.128,12.128,0,0,0,1.372-1.079,5.4,5.4,0,0,0,.7-.74,20.791,20.791,0,0,1,1.526,2.152,3.875,3.875,0,0,1,.625,2,2.3,2.3,0,0,1-.667,1.447,6.733,6.733,0,0,1-1.857,1.445,12.133,12.133,0,0,1-2.929,1.119,15.653,15.653,0,0,1-3.824.44,11.271,11.271,0,0,1-6.162-1.48,8.086,8.086,0,0,1-3.264-4.083" transform="translate(-95.415 -70.319)"/>
          <path id="Caminho_17" data-name="Caminho 17" class="cls-1" d="M421.394,110.558a11.579,11.579,0,0,0,6.533-1.934,7.576,7.576,0,0,0,1.854-1.751,2.981,2.981,0,0,0,.67-1.672V79.6h.447a3.25,3.25,0,0,0,.408-.037,3.172,3.172,0,0,1,.48-.04,5.733,5.733,0,0,1,3.528,1.079c.96.716,1.447,2.015,1.447,3.894v30.361h-6.31v-3.2a13.433,13.433,0,0,1-4.156,3,15.639,15.639,0,0,1-6.9,1.315,13.751,13.751,0,0,1-6.68-1.332,8.833,8.833,0,0,1-3.524-3.416,11.308,11.308,0,0,1-1.374-4.563c-.152-1.658-.225-3.257-.225-4.788V79.6h.447a3.111,3.111,0,0,0,.405-.037,3.227,3.227,0,0,1,.484-.04,5.859,5.859,0,0,1,3.524,1.044q1.45,1.041,1.447,3.868v17.488a20.658,20.658,0,0,0,.412,4.614,4.222,4.222,0,0,0,1.667,2.6,6.546,6.546,0,0,0,2.416,1.119,13.516,13.516,0,0,0,3,.3" transform="translate(-80.458 -64.685)"/>
          <path id="Caminho_18" data-name="Caminho 18" class="cls-1" d="M427.657,79.953a5.71,5.71,0,0,1,3.081.857,3.8,3.8,0,0,1,1.672,2.857,10.837,10.837,0,0,1,3.118-2.934,8.545,8.545,0,0,1,4.823-1.374,10.847,10.847,0,0,1,1.745.152,8.035,8.035,0,0,1,1.744.48,3.54,3.54,0,0,1,1.335.927,2.285,2.285,0,0,1,.518,1.559,6.435,6.435,0,0,1-.592,2.562,14.386,14.386,0,0,1-1.187,2.264,7.42,7.42,0,0,0-2.077-1.372,7.113,7.113,0,0,0-2.824-.482,7.2,7.2,0,0,0-4.451,1.522,5.679,5.679,0,0,0-1.41,1.595,3.619,3.619,0,0,0-.522,1.854v24.646h-6.306V80.027h.517a2.828,2.828,0,0,0,.447-.037,2.332,2.332,0,0,1,.368-.037" transform="translate(-57.925 -64.888)"/>
          <path id="Caminho_19" data-name="Caminho 19" class="cls-1" d="M454.6,110.76a13.913,13.913,0,0,0,3.748-.447,11.606,11.606,0,0,0,2.745-1.112,13.271,13.271,0,0,0,1.971-1.372,14.391,14.391,0,0,0,1.333-1.3,15.05,15.05,0,0,1,1.451,2.224,4.377,4.377,0,0,1,.628,1.857,2.487,2.487,0,0,1-.368,1.24,4.8,4.8,0,0,1-1.264,1.315,15.055,15.055,0,0,1-4.379,2.147,23.28,23.28,0,0,1-13.028-.139,13.874,13.874,0,0,1-5.4-3.229,15.41,15.41,0,0,1-3.676-5.828,25.129,25.129,0,0,1-1.35-8.8,21.581,21.581,0,0,1,1.372-8.092,16.184,16.184,0,0,1,3.6-5.6,14.024,14.024,0,0,1,5.081-3.229,17.123,17.123,0,0,1,5.9-1.04,15.266,15.266,0,0,1,6.493,1.262A12.207,12.207,0,0,1,463.878,84a14.005,14.005,0,0,1,2.524,4.9,20.333,20.333,0,0,1,.817,5.751c0,.694-.013,1.4-.038,2.117a17.8,17.8,0,0,1-.187,2.044H443.613a14.428,14.428,0,0,0,2.859,8.669q2.63,3.277,8.127,3.282m6.308-16.7a15.92,15.92,0,0,0-.407-3.711,8.188,8.188,0,0,0-1.363-3.006,6.6,6.6,0,0,0-2.55-2.042,9.159,9.159,0,0,0-3.883-.742,8.469,8.469,0,0,0-6.316,2.524,10.592,10.592,0,0,0-2.773,6.977Z" transform="translate(-45.079 -64.886)"/>
        </g>
      </g>
      <path id="Caminho_132" data-name="Caminho 132" class="cls-1" d="M47.18,8.672s4.69,1.313,5.159,1.642,9.8,6.754,9.8,7.129-.094,2.533,0,3.565.891,3.705,0,5.206-2.674,4.362-3.8,4.972-4.268,2.158-4.5,2.251A6.978,6.978,0,0,1,50.416,34.7c-2.392.328-6.1-.891-7.552-5.347S38.784,22.6,40.1,20.116a34.627,34.627,0,0,0,2.064-5.488,10.715,10.715,0,0,1,2.064-3.658C45.022,10.267,47.18,8.672,47.18,8.672Z" transform="translate(79.554 17.36)"/>
    </g>
    <path id="Caminho_133" data-name="Caminho 133" class="cls-1" d="M2864.39,3876.89s3.612,1.22,4.972,1.032,5.863,1.454,5.91,1.642a50.983,50.983,0,0,1,2.3,4.784c.046.609.891,2.86.985,3.517s1.36,3.518,0,4.784a49.187,49.187,0,0,0-3.565,4.409c-.7.8-1.5,1.97-2.392,2.063s-4.6,2.721-4.6,2.721h-1.313a3.609,3.609,0,0,1-2.533-.281c-1.594-.657-5.159-.329-6.285-3s-1.688-2.064-1.876-5.911-.7-6.989-.328-9.24.844-4.174,1.6-4.784a6.045,6.045,0,0,1,2.11-1.313,42.169,42.169,0,0,1,4.5-.422Z" transform="translate(-2716.896 17.798)"/>
  </g>
</svg>
