<svg id="Grupo_1180" data-name="Grupo 1180" xmlns="http://www.w3.org/2000/svg" width="286.688" height="35.018" viewBox="0 0 286.688 35.018">
  <path id="Caminho_1" data-name="Caminho 1" d="M219.376,81.394l-2.826-2.826-2.708,2.709a3.687,3.687,0,0,0,0,5.195l2.824,2.825,2.709-2.71a3.684,3.684,0,0,0,0-5.193" transform="translate(-158.336 -66.42)" fill="#3c61a1"/>
  <path id="Caminho_2" data-name="Caminho 2" d="M191.492,81.272l-2.707-2.707-2.828,2.829a3.681,3.681,0,0,0,0,5.193l2.708,2.709,2.827-2.829a3.688,3.688,0,0,0,0-5.195" transform="translate(-157.668 -66.42)" fill="#3c61a1" fill-rule="evenodd"/>
  <path id="Caminho_3" data-name="Caminho 3" d="M246.686,80.98,232.909,67.2a3.688,3.688,0,0,0-5.2,0L216.645,78.27l2.824,2.826a3.687,3.687,0,0,1,0,5.194L216.759,89l10.952,10.954a3.685,3.685,0,0,0,5.2,0l13.777-13.779a3.688,3.688,0,0,0,0-5.195m-8.812,1.593a4.93,4.93,0,0,1-1.565,3.7c-1.595,1.548-3.256,3.029-4.914,4.509a1.538,1.538,0,0,1-.673.334c-.027.007-.054.015-.082.02l-.089.013a1.641,1.641,0,0,1-.241.02h-.017a1.687,1.687,0,0,1-.233-.02,1.584,1.584,0,0,1-.848-.373c-1.647-1.468-3.3-2.935-4.88-4.469a4.771,4.771,0,0,1-1.582-3.689c0-.02,0-.041,0-.061a4.224,4.224,0,0,1,.275-1.491c.013-.037.026-.073.04-.11.009-.021.017-.044.026-.064a3.829,3.829,0,0,1,1.8-2.016,4.224,4.224,0,0,1,1.327-.488c.113-.021.224-.039.336-.051l.041,0c.117-.011.232-.016.347-.017l.056,0,.063,0,.164.009a4.229,4.229,0,0,1,3.093,1.594,4.236,4.236,0,0,1,6.657.021c.051.064.1.13.147.2.026.037.051.075.075.113.054.082.106.167.154.254.008.015.018.029.025.045.058.106.111.218.159.331l.019.039c.048.115.09.232.128.352l.015.046c.036.118.067.239.094.361,0,.021.007.04.011.06.023.12.043.242.056.366,0,.025,0,.051.006.077,0,.053.01.1.013.157s0,.1,0,.155c0,.021,0,.042,0,.064Z" transform="translate(-158.429 -66.122)" fill="#e41e2f"/>
  <path id="Caminho_4" data-name="Caminho 4" d="M202.7,76.387a1.874,1.874,0,1,0,1.874,1.874,1.876,1.876,0,0,0-1.874-1.874" transform="translate(-158.05 -66.368)" fill="#0588c9"/>
  <path id="Caminho_5" data-name="Caminho 5" d="M213.266,86.177a3.688,3.688,0,0,1,0-5.194l2.709-2.71L205.024,67.319a3.687,3.687,0,0,0-5.2,0L188.878,78.27l2.707,2.707a3.688,3.688,0,0,1,0,5.195L188.757,89l11.069,11.073a3.688,3.688,0,0,0,5.2,0L216.091,89ZM201.7,92.28a1.034,1.034,0,1,1-2.068,0V84.909l-4.3-2.46a1.034,1.034,0,0,1,1.026-1.8l4.827,2.756a1.034,1.034,0,0,1,.52.9Zm.712-10.319a3.943,3.943,0,1,1,3.943-3.943,3.948,3.948,0,0,1-3.943,3.943m7.111.488-4.3,2.46V92.28a1.034,1.034,0,1,1-2.068,0V84.308a1.035,1.035,0,0,1,.521-.9l4.826-2.756a1.034,1.034,0,1,1,1.026,1.8" transform="translate(-157.761 -66.125)" fill="#0588c9"/>
  <path id="Caminho_6" data-name="Caminho 6" d="M175.359,89.385l4.87-4.871a.623.623,0,0,0-.881-.881l-3.989,3.989v-3.2l2.7-2.7a.624.624,0,0,0-.882-.882l-1.813,1.814V79.322a.624.624,0,0,0-1.247,0v3.361l-1.836-1.836a.624.624,0,0,0-.881.882l2.717,2.717v3.2L170.1,83.632a.624.624,0,0,0-.882.881l4.893,4.894V92.5c.206.018.413.035.624.035s.418-.019.624-.036Z" transform="translate(-157.289 -66.424)" fill="#72b844"/>
  <path id="Caminho_7" data-name="Caminho 7" d="M185.29,81.1l2.828-2.829-11.07-11.072a3.686,3.686,0,0,0-5.2,0L158.073,80.973a3.681,3.681,0,0,0,0,5.195l13.776,13.78a3.691,3.691,0,0,0,5.2,0L188,89l-2.707-2.709a3.681,3.681,0,0,1,0-5.193m-3.525,4.02c0,.026,0,.053,0,.079a7.108,7.108,0,0,1-.266,1.926c-.013.048-.026.095-.04.142l-.023.085a4.878,4.878,0,0,1-1.355,2.2,7.25,7.25,0,0,1-11.151.148A4.888,4.888,0,0,1,168,88.574c-.049-.083-.1-.167-.143-.254-.025-.049-.049-.1-.072-.146-.053-.106-.1-.216-.149-.327l-.024-.059c-.057-.138-.107-.281-.154-.427l-.017-.052c-.047-.147-.088-.3-.124-.455l-.015-.059c-.035-.153-.064-.308-.09-.468,0-.025-.008-.051-.011-.076-.022-.155-.042-.311-.055-.471,0-.033,0-.067-.006-.1,0-.067-.009-.136-.011-.2s0-.134,0-.2c0-.027,0-.055,0-.083l0-.029,0-.044c0-.076-.023-.148-.023-.225a7.238,7.238,0,0,1,.349-2.122c.036-.129.074-.257.118-.382a6.942,6.942,0,0,1,.275-.658,6.842,6.842,0,0,1,.386-.712c.074-.12.146-.24.228-.356.061-.088.108-.186.175-.272,1.544-2,3.153-3.911,4.758-5.823a1.39,1.39,0,0,1,.651-.43c.026-.009.052-.02.078-.026l.088-.018a1.228,1.228,0,0,1,.232-.024h.017a1.145,1.145,0,0,1,.224.025,1.4,1.4,0,0,1,.823.481c1.593,1.9,3.189,3.791,4.721,5.771.091.117.16.25.244.373.04.057.075.114.113.173a7.264,7.264,0,0,1,.519.956c.052.114.1.227.149.344a7.089,7.089,0,0,1,.254.816c.054.2.11.405.147.616.024.153.031.316.047.475a7.072,7.072,0,0,1,.08.793c0,.075-.02.144-.021.219Z" transform="translate(-157 -66.122)" fill="#72b844"/>
  <path id="Caminho_8" data-name="Caminho 8" d="M275.573,83.643a14.7,14.7,0,0,1-.988,5.478,9.015,9.015,0,0,1-3.091,4.029,9.357,9.357,0,0,1-3.092,1.4,16.706,16.706,0,0,1-4.211.475h-5.132V73.116q1.742-.2,3.076-.264t2.484-.064a14.065,14.065,0,0,1,5.263.855,8.3,8.3,0,0,1,5.164,5.789,16.263,16.263,0,0,1,.527,4.211m-2.928.18a15.066,15.066,0,0,0-.363-3.409,6.555,6.555,0,0,0-1.286-2.7,6.034,6.034,0,0,0-2.458-1.765,10.27,10.27,0,0,0-3.845-.626c-.439,0-.9.012-1.369.033s-.941.065-1.4.131V92.623h2.739a9.067,9.067,0,0,0,3.746-.692,6.477,6.477,0,0,0,2.473-1.878,7.412,7.412,0,0,0,1.354-2.786,13.783,13.783,0,0,0,.412-3.445" transform="translate(-159.445 -66.282)" fill="#7e7f81"/>
  <path id="Caminho_9" data-name="Caminho 9" d="M292.98,87.385a12.168,12.168,0,0,1-.394,3.11,7.516,7.516,0,0,1-1.268,2.647,6.266,6.266,0,0,1-2.253,1.842,7.435,7.435,0,0,1-3.356.691,7.652,7.652,0,0,1-3.338-.657,6.057,6.057,0,0,1-2.221-1.776,7.343,7.343,0,0,1-1.249-2.615,12.253,12.253,0,0,1-.4-3.143,10.491,10.491,0,0,1,.461-3.125,7.418,7.418,0,0,1,1.382-2.582,6.755,6.755,0,0,1,2.286-1.76,7.318,7.318,0,0,1,3.207-.659,7.456,7.456,0,0,1,3.289.659,6.169,6.169,0,0,1,2.2,1.76,7.22,7.22,0,0,1,1.25,2.549,11.612,11.612,0,0,1,.394,3.059m-2.928,0a11.339,11.339,0,0,0-.182-2.022,5.613,5.613,0,0,0-.645-1.81,3.55,3.55,0,0,0-1.287-1.3,4.141,4.141,0,0,0-2.145-.493,4.089,4.089,0,0,0-2.1.493,3.781,3.781,0,0,0-1.338,1.3,5.693,5.693,0,0,0-.71,1.81,9.609,9.609,0,0,0-.215,2.022,12.1,12.1,0,0,0,.182,2.073,5.547,5.547,0,0,0,.676,1.892,4.193,4.193,0,0,0,1.32,1.382,3.78,3.78,0,0,0,2.114.543,4.011,4.011,0,0,0,2.179-.543,3.793,3.793,0,0,0,1.32-1.382,6.009,6.009,0,0,0,.645-1.892,12.207,12.207,0,0,0,.182-2.073" transform="translate(-159.911 -66.439)" fill="#7e7f81"/>
  <path id="Caminho_10" data-name="Caminho 10" d="M302.587,93.278a5.138,5.138,0,0,0,2.9-.857,3.372,3.372,0,0,0,.821-.776,1.323,1.323,0,0,0,.3-.741V79.561h.2a1.441,1.441,0,0,0,.181-.017,1.418,1.418,0,0,1,.213-.018,2.541,2.541,0,0,1,1.564.478,2.026,2.026,0,0,1,.641,1.726V95.186h-2.8V93.766a5.955,5.955,0,0,1-1.842,1.329,6.935,6.935,0,0,1-3.061.583,6.094,6.094,0,0,1-2.96-.59,3.928,3.928,0,0,1-1.563-1.514,5.054,5.054,0,0,1-.608-2.022c-.065-.735-.1-1.444-.1-2.122V79.561h.2a1.436,1.436,0,0,0,.182-.017,1.4,1.4,0,0,1,.213-.018,2.6,2.6,0,0,1,1.563.463,1.982,1.982,0,0,1,.641,1.714v7.75a9.162,9.162,0,0,0,.181,2.045,1.882,1.882,0,0,0,.741,1.153,2.887,2.887,0,0,0,1.069.5,6.018,6.018,0,0,0,1.332.132" transform="translate(-160.341 -66.443)" fill="#7e7f81"/>
  <path id="Caminho_11" data-name="Caminho 11" d="M314.121,93.1a4.895,4.895,0,0,1-.28-1.365c-.032-.494-.05-.981-.05-1.464v-15.4h.2a1.272,1.272,0,0,0,.183-.017,1.536,1.536,0,0,1,.214-.017,2.644,2.644,0,0,1,1.546.458,1.9,1.9,0,0,1,.658,1.666V79.58h4.9v2.4h-4.9v8.488q0,2.7,2.138,2.7a2.664,2.664,0,0,0,.987-.181,4.288,4.288,0,0,0,.823-.427,5.36,5.36,0,0,0,.608-.478,2.377,2.377,0,0,0,.312-.328,9.034,9.034,0,0,1,.675.954,1.709,1.709,0,0,1,.278.888,1.017,1.017,0,0,1-.3.641,2.984,2.984,0,0,1-.823.64,5.371,5.371,0,0,1-1.3.5,6.93,6.93,0,0,1-1.693.2,5,5,0,0,1-2.731-.656,3.583,3.583,0,0,1-1.446-1.81" transform="translate(-160.756 -66.331)" fill="#7e7f81"/>
  <path id="Caminho_12" data-name="Caminho 12" d="M338.107,87.385a12.169,12.169,0,0,1-.4,3.11,7.513,7.513,0,0,1-1.267,2.647,6.285,6.285,0,0,1-2.254,1.842,7.44,7.44,0,0,1-3.355.691,7.664,7.664,0,0,1-3.34-.657,6.063,6.063,0,0,1-2.221-1.776,7.346,7.346,0,0,1-1.248-2.615,12.259,12.259,0,0,1-.4-3.143,10.456,10.456,0,0,1,.461-3.125,7.4,7.4,0,0,1,1.381-2.582,6.75,6.75,0,0,1,2.287-1.76,7.313,7.313,0,0,1,3.206-.659,7.466,7.466,0,0,1,3.29.659,6.152,6.152,0,0,1,2.2,1.76,7.191,7.191,0,0,1,1.251,2.549,11.612,11.612,0,0,1,.4,3.059m-2.928,0A11.334,11.334,0,0,0,335,85.363a5.6,5.6,0,0,0-.644-1.81,3.56,3.56,0,0,0-1.288-1.3,4.142,4.142,0,0,0-2.146-.493,4.082,4.082,0,0,0-2.1.493,3.777,3.777,0,0,0-1.337,1.3,5.63,5.63,0,0,0-.71,1.81,9.546,9.546,0,0,0-.216,2.022,12.192,12.192,0,0,0,.181,2.073,5.587,5.587,0,0,0,.677,1.892,4.19,4.19,0,0,0,1.323,1.382,3.768,3.768,0,0,0,2.112.543,4.009,4.009,0,0,0,2.18-.543,3.81,3.81,0,0,0,1.32-1.382A6,6,0,0,0,335,89.458a12.2,12.2,0,0,0,.183-2.073" transform="translate(-160.992 -66.439)" fill="#7e7f81"/>
  <path id="Caminho_13" data-name="Caminho 13" d="M342.322,79.622a2.531,2.531,0,0,1,1.366.38,1.685,1.685,0,0,1,.741,1.266,4.813,4.813,0,0,1,1.382-1.3,3.786,3.786,0,0,1,2.138-.609,4.8,4.8,0,0,1,.773.067,3.547,3.547,0,0,1,.773.213,1.571,1.571,0,0,1,.591.411,1.014,1.014,0,0,1,.229.691,2.849,2.849,0,0,1-.263,1.135,6.3,6.3,0,0,1-.526,1,3.292,3.292,0,0,0-.92-.608,3.152,3.152,0,0,0-1.251-.214,3.189,3.189,0,0,0-1.069.181,3.156,3.156,0,0,0-.9.494,2.517,2.517,0,0,0-.625.707,1.6,1.6,0,0,0-.23.822V95.182h-2.8V79.655h.229a1.256,1.256,0,0,0,.2-.017,1.033,1.033,0,0,1,.163-.017" transform="translate(-161.426 -66.439)" fill="#7e7f81"/>
  <path id="Caminho_14" data-name="Caminho 14" d="M368.993,90.653V72.986a.926.926,0,0,0,.23-.032,2.344,2.344,0,0,0,.248-.016,2.848,2.848,0,0,1,.312-.017,2.614,2.614,0,0,1,.624.081,1.712,1.712,0,0,1,.61.3,1.557,1.557,0,0,1,.461.626,2.707,2.707,0,0,1,.181,1.069V95.027h-2.666L357.81,77.954V95.027h-2.666V73.086a3.294,3.294,0,0,1,.56-.115,5.457,5.457,0,0,1,.723-.049,2.213,2.213,0,0,1,1.136.246,2.426,2.426,0,0,1,.771.838Z" transform="translate(-161.747 -66.285)" fill="#7e7f81"/>
  <path id="Caminho_15" data-name="Caminho 15" d="M389.245,91.6a8.684,8.684,0,0,0,.067,1.234,1.288,1.288,0,0,0,.245.658.854.854,0,0,0,.494.28,3.974,3.974,0,0,0,.807.065v1.316a4.408,4.408,0,0,1-.725.165,5.693,5.693,0,0,1-.888.065,3.746,3.746,0,0,1-1.8-.41,1.789,1.789,0,0,1-.9-1.464,7.491,7.491,0,0,1-1.969,1.4,6.771,6.771,0,0,1-3.016.576,7.805,7.805,0,0,1-1.722-.2,4.173,4.173,0,0,1-1.573-.723,4.068,4.068,0,0,1-1.164-1.416,4.947,4.947,0,0,1-.459-2.27,4.333,4.333,0,0,1,.87-2.8,6.19,6.19,0,0,1,2.147-1.71,9.579,9.579,0,0,1,2.738-.856,20.836,20.836,0,0,1,2.67-.263h.689a6.181,6.181,0,0,1,.689.032v-.493a3.234,3.234,0,0,0-.707-2.254,3.649,3.649,0,0,0-2.715-.773,7.26,7.26,0,0,0-2.5.378,9.012,9.012,0,0,0-1.975,1.037h-.328a4.9,4.9,0,0,1-.443-.921,2.445,2.445,0,0,1-.183-.79,1.04,1.04,0,0,1,.528-.806,5.447,5.447,0,0,1,1.364-.672,10.7,10.7,0,0,1,1.859-.462,12.607,12.607,0,0,1,2.007-.165,9.258,9.258,0,0,1,2.8.362,4.327,4.327,0,0,1,1.823,1.086,4,4,0,0,1,.982,1.81,10.007,10.007,0,0,1,.282,2.5Zm-2.763-4.211h-.948a17.787,17.787,0,0,0-2.13.132,7.617,7.617,0,0,0-1.965.494,3.758,3.758,0,0,0-1.442,1,2.5,2.5,0,0,0-.555,1.693,2.765,2.765,0,0,0,.589,1.742,2.651,2.651,0,0,0,2.2.758,5.271,5.271,0,0,0,1.621-.248,6.221,6.221,0,0,0,1.359-.608,3.558,3.558,0,0,0,.932-.791,1.32,1.32,0,0,0,.344-.821Z" transform="translate(-162.262 -66.439)" fill="#7e7f81"/>
  <path id="Caminho_16" data-name="Caminho 16" d="M395.478,93.1a4.9,4.9,0,0,1-.28-1.365c-.032-.494-.05-.981-.05-1.464v-15.4h.2a1.27,1.27,0,0,0,.182-.017,1.539,1.539,0,0,1,.214-.017,2.644,2.644,0,0,1,1.546.458,1.9,1.9,0,0,1,.658,1.666V79.58h4.9v2.4h-4.9v8.488q0,2.7,2.138,2.7a2.664,2.664,0,0,0,.987-.181,4.285,4.285,0,0,0,.823-.427,5.357,5.357,0,0,0,.608-.478,2.385,2.385,0,0,0,.312-.328,9.2,9.2,0,0,1,.676.954,1.717,1.717,0,0,1,.277.888,1.016,1.016,0,0,1-.3.641,2.983,2.983,0,0,1-.823.64,5.375,5.375,0,0,1-1.3.5,6.938,6.938,0,0,1-1.694.2,5,5,0,0,1-2.731-.656,3.583,3.583,0,0,1-1.446-1.81" transform="translate(-162.705 -66.331)" fill="#7e7f81"/>
  <path id="Caminho_17" data-name="Caminho 17" d="M413.7,93.278a5.131,5.131,0,0,0,2.895-.857,3.358,3.358,0,0,0,.822-.776,1.321,1.321,0,0,0,.3-.741V79.561h.2a1.442,1.442,0,0,0,.181-.017,1.406,1.406,0,0,1,.213-.018,2.541,2.541,0,0,1,1.564.478,2.029,2.029,0,0,1,.641,1.726V95.186h-2.8V93.766a5.952,5.952,0,0,1-1.842,1.329,6.931,6.931,0,0,1-3.06.583,6.094,6.094,0,0,1-2.96-.59,3.914,3.914,0,0,1-1.562-1.514,5.013,5.013,0,0,1-.609-2.022c-.067-.735-.1-1.444-.1-2.122V79.561h.2a1.382,1.382,0,0,0,.18-.017,1.432,1.432,0,0,1,.215-.018,2.6,2.6,0,0,1,1.562.463,1.98,1.98,0,0,1,.641,1.714v7.75a9.156,9.156,0,0,0,.182,2.045,1.872,1.872,0,0,0,.739,1.153,2.9,2.9,0,0,0,1.071.5,5.991,5.991,0,0,0,1.331.132" transform="translate(-163.003 -66.443)" fill="#7e7f81"/>
  <path id="Caminho_18" data-name="Caminho 18" d="M426.915,79.622a2.53,2.53,0,0,1,1.365.38,1.685,1.685,0,0,1,.741,1.266,4.8,4.8,0,0,1,1.382-1.3,3.787,3.787,0,0,1,2.138-.609,4.806,4.806,0,0,1,.773.067,3.562,3.562,0,0,1,.773.213,1.57,1.57,0,0,1,.591.411,1.013,1.013,0,0,1,.229.691,2.852,2.852,0,0,1-.263,1.135,6.375,6.375,0,0,1-.526,1,3.291,3.291,0,0,0-.92-.608,3.153,3.153,0,0,0-1.251-.214,3.187,3.187,0,0,0-1.069.181,3.154,3.154,0,0,0-.9.494,2.515,2.515,0,0,0-.625.707,1.6,1.6,0,0,0-.231.822V95.182h-2.794V79.655h.229a1.255,1.255,0,0,0,.2-.017,1.033,1.033,0,0,1,.163-.017" transform="translate(-163.452 -66.439)" fill="#7e7f81"/>
  <path id="Caminho_19" data-name="Caminho 19" d="M444.8,93.274a6.166,6.166,0,0,0,1.661-.2,5.143,5.143,0,0,0,1.216-.493,5.873,5.873,0,0,0,.874-.608,6.36,6.36,0,0,0,.59-.575,6.67,6.67,0,0,1,.643.986,1.94,1.94,0,0,1,.278.823,1.1,1.1,0,0,1-.163.55,2.128,2.128,0,0,1-.56.583,6.671,6.671,0,0,1-1.94.952,10.317,10.317,0,0,1-5.773-.062,6.148,6.148,0,0,1-2.394-1.431,6.829,6.829,0,0,1-1.629-2.583,11.138,11.138,0,0,1-.6-3.9,9.564,9.564,0,0,1,.608-3.586,7.171,7.171,0,0,1,1.6-2.483,6.216,6.216,0,0,1,2.252-1.431,7.587,7.587,0,0,1,2.616-.461,6.764,6.764,0,0,1,2.877.559,5.41,5.41,0,0,1,1.958,1.5,6.206,6.206,0,0,1,1.119,2.172,9.01,9.01,0,0,1,.362,2.548c0,.307-.006.621-.017.938a7.9,7.9,0,0,1-.083.906H439.935A6.394,6.394,0,0,0,441.2,91.82a4.343,4.343,0,0,0,3.6,1.454m2.8-7.4a7.056,7.056,0,0,0-.18-1.645,3.629,3.629,0,0,0-.6-1.332,2.925,2.925,0,0,0-1.13-.9,4.06,4.06,0,0,0-1.721-.329,3.753,3.753,0,0,0-2.8,1.119,4.694,4.694,0,0,0-1.229,3.092Z" transform="translate(-163.708 -66.439)" fill="#7e7f81"/>
</svg>
